<svg width="39" height="35" viewBox="0 0 39 35" fill="none" xmlns="http://www.w3.org/2000/svg">
<path d="M38.4 24.6001C37.4 22.8001 36.3 21.0002 35.3 19.2002C32.1 13.6002 28.8 7.8998 25.6 2.2998C24.7 0.799805 23.5 0 21.7 0C20.4 0 19.2 0 17.9 0C17 0 16.2 0 15.2 0C21.8 11.5 28.4 22.8999 35 34.3999C35.1 34.2999 35.1 34.2998 35.1 34.2998C36.2 32.3998 37.3 30.5001 38.4 28.6001C39.2 27.3001 39.2 25.9001 38.4 24.6001Z" fill="white"/>
<path d="M24.4 27C24.2 26.7 24 26.6001 23.7 26.6001C16 26.6001 8.2 26.6001 0.5 26.6001C0.4 26.6001 0.2 26.6001 0 26.6001C0.1 26.8001 0.100012 26.9 0.200012 27C1.20001 28.8 2.29999 30.4998 3.29999 32.2998C4.19999 33.7998 5.40001 34.5 7.20001 34.5C14.2 34.5 21.3 34.5 28.3 34.5C28.4 34.5 28.6 34.5 28.8 34.5C28.7 34.3 28.6 34.1 28.5 34C27.1 31.7 25.7 29.4 24.4 27Z" fill="white"/>
<path d="M12 5.6001C9 10.7001 6.10004 15.8 3.10004 21C9.00004 21 14.9 21 20.8 21C17.9 15.9 15 10.8001 12 5.6001Z" fill="white"/>
</svg>
