<svg width="196" height="49" viewBox="0 0 196 49" fill="none" xmlns="http://www.w3.org/2000/svg">
<path d="M45.7998 23.7998H62.1998V20.0996H50.0998V14.0996H58.6998L60.0998 10.5H50.0998V3.69922H62.1998V0H45.7998V23.7998Z" fill="white"/>
<path d="M84.2 11.8994C85.7 10.8994 86.8 8.9998 86.8 6.2998C86.8 3.0998 84.9 0 79.4 0H69.5V23.7998H79.7C84.6 23.7998 87.6 21.5994 87.6 17.3994C87.6 14.0994 85.8 12.4994 84.2 11.8994ZM73.9 3.5H79.1C81.4 3.5 82.4 4.8998 82.4 6.7998C82.4 8.6998 81.3 10.3994 78.5 10.3994H73.9V3.5ZM78.5 20.2998H73.8V13.8994H78.4C81.6 13.8994 83.3 15.2994 83.3 17.3994C83.3 19.7994 81.4 20.2998 78.5 20.2998Z" fill="white"/>
<path d="M99.3999 0H94.8999V23.7998H99.3999V0Z" fill="white"/>
<path d="M125.7 6.5C125.7 2.8 123 0 117.9 0H107.9V23.7998H112.3V14H116.2C120.2 14 120.9 15.2992 120.9 18.1992V18.5996C120.9 20.9996 121 23.8994 121 23.8994H125.3C125.3 23.8994 125.3 20.8998 125.3 19.2998V18.1992C125.3 13.9992 123.6 12.6992 122.1 12.1992C123.9 11.3992 125.7 9.6 125.7 6.5ZM116.8 10.2998H112.2V3.59961H117C119.8 3.59961 121.1 4.79941 121.1 6.89941C121.1 9.19941 119.9 10.2998 116.8 10.2998Z" fill="white"/>
<path d="M38.2 6.5C38.2 2.8 35.5 0 30.4 0H20.4V10.5H17.3L16 14.0996H20.4V23.7998H24.8V14.0996H24.9H28.7C32.7 14.0996 33.4 15.3998 33.4 18.2998V18.5996C33.4 20.9996 33.5 23.8994 33.5 23.8994H37.8C37.8 23.8994 37.8 20.8998 37.8 19.2998V18.1992C37.8 13.9992 36.1 12.7994 34.6 12.3994C36.5 11.4994 38.2 9.6 38.2 6.5ZM29.3 10.5H24.8H24.7V3.59961H29.5C32.3 3.59961 33.6 4.79941 33.6 6.89941C33.7 9.19941 32.4 10.5 29.3 10.5Z" fill="white"/>
<path d="M130.8 3.69922H138.2V23.7998H142.6V3.69922H150V0H130.8V3.69922Z" fill="white"/>
<path d="M179.1 10.5H174.7V0H170.2V10.3994H159.7V0H155.3V23.7998H159.7V14.0996H170.2V23.7998H174.7V14.0996H177.8L179.1 10.5Z" fill="white"/>
<path d="M75.9558 41.757C75.9558 41.5335 75.9055 41.3267 75.8049 41.1367C75.7099 40.941 75.5115 40.765 75.2097 40.6085C74.9135 40.4464 74.4664 40.3067 73.8683 40.1893C73.3653 40.0831 72.9098 39.9574 72.5018 39.8121C72.0994 39.6668 71.7557 39.4907 71.4707 39.2839C71.1912 39.0771 70.9761 38.834 70.8252 38.5546C70.6743 38.2751 70.5988 37.9482 70.5988 37.5737C70.5988 37.216 70.677 36.8779 70.8335 36.5593C70.9956 36.2407 71.222 35.9585 71.5126 35.7126C71.8088 35.4667 72.1637 35.2738 72.5773 35.1341C72.9909 34.9944 73.452 34.9245 73.9606 34.9245C74.6871 34.9245 75.3075 35.0531 75.8217 35.3102C76.3359 35.5673 76.7299 35.911 77.0038 36.3413C77.2776 36.7661 77.4145 37.2384 77.4145 37.7581H75.8636C75.8636 37.5066 75.7882 37.2635 75.6373 37.0288C75.4919 36.7884 75.2768 36.59 74.9917 36.4335C74.7123 36.2771 74.3686 36.1988 73.9606 36.1988C73.5302 36.1988 73.1809 36.2659 72.9126 36.4C72.65 36.5286 72.4571 36.6934 72.3342 36.8946C72.2168 37.0958 72.1581 37.3082 72.1581 37.5318C72.1581 37.6994 72.1861 37.8504 72.242 37.9845C72.3034 38.113 72.4096 38.2332 72.5605 38.345C72.7114 38.4512 72.9238 38.5518 73.1977 38.6468C73.4715 38.7418 73.8208 38.8368 74.2456 38.9318C74.9889 39.0995 75.6009 39.3007 76.0816 39.5354C76.5622 39.7702 76.9199 40.058 77.1547 40.3989C77.3894 40.7398 77.5068 41.1534 77.5068 41.6397C77.5068 42.0365 77.4229 42.3998 77.2553 42.7295C77.0932 43.0593 76.8556 43.3443 76.5427 43.5846C76.2353 43.8194 75.8664 44.0038 75.4361 44.1379C75.0113 44.2665 74.5334 44.3308 74.0025 44.3308C73.2033 44.3308 72.527 44.1882 71.9737 43.9032C71.4204 43.6182 71.0012 43.2493 70.7162 42.7966C70.4311 42.3439 70.2886 41.866 70.2886 41.363H71.8479C71.8703 41.7878 71.9932 42.1259 72.2168 42.3774C72.4404 42.6233 72.7142 42.7994 73.0384 42.9056C73.3625 43.0062 73.6839 43.0565 74.0025 43.0565C74.4272 43.0565 74.7821 43.0006 75.0672 42.8888C75.3578 42.777 75.5786 42.6233 75.7295 42.4277C75.8804 42.2321 75.9558 42.0085 75.9558 41.757ZM83.3416 35.0922V36.2826H78.4373V35.0922H83.3416ZM80.0972 32.8873H81.6482V41.9163C81.6482 42.2237 81.6957 42.4557 81.7907 42.6121C81.8857 42.7686 82.0087 42.872 82.1596 42.9223C82.3105 42.9726 82.4726 42.9978 82.6458 42.9978C82.7744 42.9978 82.9085 42.9866 83.0482 42.9643C83.1935 42.9363 83.3025 42.914 83.3752 42.8972L83.3836 44.1631C83.2606 44.2022 83.0985 44.2385 82.8973 44.2721C82.7017 44.3112 82.4642 44.3308 82.1847 44.3308C81.8047 44.3308 81.4554 44.2553 81.1368 44.1044C80.8182 43.9535 80.5639 43.702 80.3739 43.3499C80.1895 42.9922 80.0972 42.5115 80.0972 41.9079V32.8873ZM90.7107 42.0672V35.0922H92.27V44.1631H90.7861L90.7107 42.0672ZM91.0041 40.1558L91.6496 40.139C91.6496 40.7426 91.5854 41.3015 91.4568 41.8157C91.3339 42.3243 91.1327 42.7658 90.8532 43.1403C90.5738 43.5148 90.2077 43.8082 89.755 44.0206C89.3023 44.2274 88.7518 44.3308 88.1034 44.3308C87.6619 44.3308 87.2567 44.2665 86.8878 44.1379C86.5246 44.0094 86.2116 43.811 85.9489 43.5427C85.6862 43.2744 85.4822 42.9251 85.3369 42.4948C85.1972 42.0644 85.1273 41.5475 85.1273 40.9438V35.0922H86.6783V40.9606C86.6783 41.3686 86.723 41.7067 86.8124 41.975C86.9074 42.2377 87.0332 42.4473 87.1896 42.6038C87.3517 42.7547 87.5306 42.8609 87.7262 42.9223C87.9274 42.9838 88.1342 43.0146 88.3466 43.0146C89.0061 43.0146 89.5286 42.8888 89.9143 42.6373C90.2999 42.3802 90.5766 42.0365 90.7442 41.6061C90.9175 41.1702 91.0041 40.6867 91.0041 40.1558ZM100.352 42.4026V31.2861H101.911V44.1631H100.486L100.352 42.4026ZM94.2485 39.7282V39.5522C94.2485 38.8592 94.3323 38.2304 94.5 37.6659C94.6733 37.0958 94.9164 36.6068 95.2294 36.1988C95.5479 35.7908 95.9252 35.4778 96.3611 35.2599C96.8027 35.0363 97.2945 34.9245 97.8366 34.9245C98.4067 34.9245 98.9041 35.0251 99.3289 35.2263C99.7592 35.4219 100.123 35.7098 100.419 36.0898C100.721 36.4643 100.958 36.917 101.131 37.4479C101.305 37.9789 101.425 38.5797 101.492 39.2504V40.0217C101.43 40.6867 101.31 41.2848 101.131 41.8157C100.958 42.3467 100.721 42.7994 100.419 43.1738C100.123 43.5483 99.7592 43.8361 99.3289 44.0373C98.8985 44.2329 98.3955 44.3308 97.8199 44.3308C97.2889 44.3308 96.8027 44.2162 96.3611 43.987C95.9252 43.7579 95.5479 43.4365 95.2294 43.0229C94.9164 42.6094 94.6733 42.1231 94.5 41.5642C94.3323 40.9997 94.2485 40.3877 94.2485 39.7282ZM95.8078 39.5522V39.7282C95.8078 40.1809 95.8525 40.6057 95.942 41.0025C96.037 41.3993 96.1823 41.7487 96.3779 42.0505C96.5735 42.3523 96.8222 42.5898 97.124 42.7631C97.4258 42.9307 97.7863 43.0146 98.2055 43.0146C98.7197 43.0146 99.1416 42.9056 99.4714 42.6876C99.8067 42.4696 100.075 42.1818 100.276 41.8241C100.477 41.4664 100.634 41.078 100.746 40.6588V38.6384C100.679 38.331 100.581 38.0348 100.452 37.7497C100.329 37.4591 100.167 37.202 99.966 36.9785C99.7704 36.7493 99.5273 36.5677 99.2367 36.4335C98.9516 36.2994 98.6135 36.2323 98.2223 36.2323C97.7975 36.2323 97.4314 36.3218 97.124 36.5006C96.8222 36.6739 96.5735 36.9142 96.3779 37.2216C96.1823 37.5234 96.037 37.8755 95.942 38.2779C95.8525 38.6747 95.8078 39.0995 95.8078 39.5522ZM106.01 35.0922V44.1631H104.451V35.0922H106.01ZM104.334 32.6861C104.334 32.4346 104.409 32.2223 104.56 32.049C104.717 31.8757 104.946 31.7891 105.248 31.7891C105.544 31.7891 105.77 31.8757 105.927 32.049C106.089 32.2223 106.17 32.4346 106.17 32.6861C106.17 32.9265 106.089 33.1333 105.927 33.3065C105.77 33.4742 105.544 33.558 105.248 33.558C104.946 33.558 104.717 33.4742 104.56 33.3065C104.409 33.1333 104.334 32.9265 104.334 32.6861ZM108.09 39.7282V39.5354C108.09 38.8815 108.185 38.2751 108.375 37.7162C108.565 37.1517 108.839 36.6627 109.196 36.2491C109.554 35.8299 109.987 35.5058 110.496 35.2766C111.004 35.0419 111.574 34.9245 112.206 34.9245C112.843 34.9245 113.416 35.0419 113.924 35.2766C114.439 35.5058 114.875 35.8299 115.232 36.2491C115.596 36.6627 115.872 37.1517 116.062 37.7162C116.252 38.2751 116.347 38.8815 116.347 39.5354V39.7282C116.347 40.3822 116.252 40.9886 116.062 41.5475C115.872 42.1063 115.596 42.5954 115.232 43.0146C114.875 43.4281 114.441 43.7523 113.933 43.987C113.43 44.2162 112.86 44.3308 112.223 44.3308C111.585 44.3308 111.013 44.2162 110.504 43.987C109.995 43.7523 109.559 43.4281 109.196 43.0146C108.839 42.5954 108.565 42.1063 108.375 41.5475C108.185 40.9886 108.09 40.3822 108.09 39.7282ZM109.641 39.5354V39.7282C109.641 40.1809 109.694 40.6085 109.8 41.0109C109.906 41.4077 110.065 41.7598 110.278 42.0672C110.496 42.3746 110.767 42.6177 111.091 42.7966C111.415 42.9698 111.792 43.0565 112.223 43.0565C112.647 43.0565 113.019 42.9698 113.338 42.7966C113.662 42.6177 113.93 42.3746 114.142 42.0672C114.355 41.7598 114.514 41.4077 114.62 41.0109C114.732 40.6085 114.788 40.1809 114.788 39.7282V39.5354C114.788 39.0883 114.732 38.6663 114.62 38.2695C114.514 37.8671 114.352 37.5122 114.134 37.2048C113.922 36.8918 113.653 36.6459 113.329 36.4671C113.011 36.2882 112.636 36.1988 112.206 36.1988C111.781 36.1988 111.407 36.2882 111.082 36.4671C110.764 36.6459 110.496 36.8918 110.278 37.2048C110.065 37.5122 109.906 37.8671 109.8 38.2695C109.694 38.6663 109.641 39.0883 109.641 39.5354Z" fill="white"/>
<path d="M9 12.5001L0.399963 17.5001C0.199963 17.6001 0 17.4999 0 17.2999V7.29994C0 7.09994 0.199963 6.99974 0.399963 7.09974L9 12.0997C9.2 12.0997 9.2 12.4001 9 12.5001Z" fill="white"/>
<path d="M186.1 12.5001L194.7 17.5001C194.9 17.6001 195.1 17.4999 195.1 17.2999V7.29994C195.1 7.09994 194.9 6.99974 194.7 7.09974L186.1 12.0997C185.9 12.0997 185.9 12.4001 186.1 12.5001Z" fill="white"/>
</svg>
