<svg width="39" height="38" viewBox="0 0 39 38" fill="none" xmlns="http://www.w3.org/2000/svg">
<path d="M19.7999 0.100098C24.2999 0.100098 28.8999 0.100098 33.3999 0.100098C35.7999 0.100098 38.1 1.7998 38.6 4.2998C38.7 4.6998 38.7 4.9999 38.7 5.3999C38.7 14.1999 38.7 22.9998 38.7 31.7998C38.7 34.4998 36.9999 36.6001 34.2999 37.1001C33.9999 37.2001 33.5999 37.2002 33.2999 37.2002C30.7999 37.2002 28.2 37.2002 25.7 37.2002C25.4 37.2002 25.2999 37.0998 25.2999 36.7998C25.2999 32.7998 25.2999 28.8999 25.2999 24.8999C25.2999 24.4999 25.3999 24.3999 25.7999 24.3999C26.9999 24.3999 28.2 24.3999 29.5 24.3999C30.2 24.3999 30.7 24.1998 30.7 23.2998C30.8 22.0998 31 20.9002 31.1 19.7002C31.2 18.9002 30.9 18.5 30 18.5C28.6 18.5 27.1 18.5 25.7 18.5C25.4 18.5 25.2999 18.4001 25.2999 18.1001C25.2999 16.9001 25.2999 15.8001 25.3999 14.6001C25.4999 13.1001 26.4 12.6001 27.6 12.6001C28.4 12.6001 29.1999 12.6001 29.8999 12.6001C30.5999 12.6001 31 12.3 31 11.5C31 10.5 31 9.3999 31 8.3999C31 7.6999 30.7 7.3999 30 7.3999C28.8 7.3999 27.5999 7.3999 26.2999 7.3999C24.1999 7.4999 22.2999 8.0999 20.8999 9.8999C20.0999 10.9999 19.6 12.2001 19.5 13.6001C19.4 15.1001 19.3999 16.6001 19.3999 18.1001C19.3999 18.5001 19.2999 18.6001 18.8999 18.6001C17.9999 18.6001 17.1999 18.6001 16.2999 18.6001C15.4999 18.6001 15.2 18.8998 15.2 19.7998C15.2 20.9998 15.1999 22.3 15.2999 23.5C15.2999 24.1 15.6 24.3999 16.2 24.3999C16.8 24.3999 17.4 24.3999 18.1 24.3999C18.5 24.3999 18.8 24.3999 19.2 24.3999C19.4 24.3999 19.5 24.5002 19.5 24.7002C19.5 24.8002 19.5 24.9001 19.5 25.1001C19.5 29.0001 19.5 32.8002 19.5 36.7002C19.5 37.2002 19.5 37.2002 19 37.2002C14.8 37.2002 10.4999 37.2002 6.29993 37.2002C3.69993 37.2002 1.6 35.6001 1 33.1001C0.9 32.8001 0.899902 32.4001 0.899902 32.1001C0.899902 23.1001 0.899902 14.1001 0.899902 5.1001C0.899902 2.7001 2.69998 0.600098 5.09998 0.100098C5.39998 9.76548e-05 5.79998 0 6.09998 0C10.7 0.1 15.1999 0.100098 19.7999 0.100098Z" fill="white"/>
</svg>
