<svg width="39" height="39" viewBox="0 0 39 39" fill="none" xmlns="http://www.w3.org/2000/svg">
<path d="M38.1002 9.60029C37.8002 7.10029 36.9002 4.90029 35.0002 3.10029C33.1002 1.20029 30.7002 0.4 28.1002 0.3C23.6002 0.1 13.1002 -0.0998047 9.40021 0.500195C5.20021 1.2002 2.4002 3.7001 1.2002 7.9001C0.300201 11.1001 0.500189 26.0004 1.00019 29.2004C1.70019 33.6004 4.30023 36.3002 8.60023 37.5002C11.6002 38.3002 26.3002 38.2003 29.6002 37.6003C34.0002 36.9003 36.8002 34.3002 37.9002 30.0002C38.7002 26.6002 38.4002 12.5003 38.1002 9.60029ZM34.6002 28.5002C34.1002 31.8002 31.9002 33.9004 28.6002 34.2004C25.5002 34.5004 11.9002 34.7001 9.10023 33.9001C6.40023 33.1001 4.80021 31.3003 4.40021 28.6003C4.00021 26.0003 3.90021 13.0002 4.40021 9.5002C4.90021 6.2002 7.10021 4.2 10.4002 3.8C13.8002 3.4 25.8002 3.4001 29.0002 3.9001C32.3002 4.4001 34.3002 6.6001 34.7002 9.9001C35.0002 13.0001 35.1002 25.1002 34.6002 28.5002ZM19.4002 9.3C14.0002 9.3 9.7002 13.6002 9.7002 19.0002C9.7002 24.3002 14.0002 28.7004 19.4002 28.7004C24.8002 28.7004 29.1002 24.4002 29.1002 19.0002C29.1002 13.6002 24.8002 9.3 19.4002 9.3ZM19.4002 25.3C16.0002 25.3 13.2002 22.5002 13.2002 19.0002C13.2002 15.5002 16.0002 12.7004 19.5002 12.7004C23.0002 12.7004 25.8002 15.5002 25.8002 19.0002C25.7002 22.5002 22.9002 25.3 19.4002 25.3ZM31.8002 8.9001C31.8002 10.2001 30.8002 11.2004 29.5002 11.2004C28.2002 11.2004 27.2002 10.2001 27.2002 8.9001C27.2002 7.6001 28.2002 6.60029 29.5002 6.60029C30.8002 6.60029 31.8002 7.7001 31.8002 8.9001Z" fill="white"/>
</svg>
