<svg width="48" height="38" viewBox="0 0 48 38" fill="none" xmlns="http://www.w3.org/2000/svg">
<path d="M14.3999 29.6001C11.3999 29.5001 8.99989 28.3 7.19989 26C6.49989 25.1 5.89988 24.0999 5.49988 22.8999C6.79988 23.1999 8.0999 23.0998 9.3999 22.7998C9.4999 22.7998 9.59989 22.7002 9.69989 22.7002C7.49989 22.2002 5.69987 21.0998 4.29987 19.2998C2.89987 17.4998 2.19989 15.5002 2.19989 13.2002C2.69989 13.4002 3.09991 13.5998 3.59991 13.7998C4.09991 13.9998 4.49988 14.1002 4.99988 14.2002C5.49988 14.3002 5.99988 14.3999 6.49988 14.3999C5.99988 13.9999 5.59991 13.7002 5.09991 13.2002C4.69991 12.8002 4.29988 12.2998 3.99988 11.7998C3.69988 11.2998 3.39991 10.8002 3.09991 10.2002C2.89991 9.7002 2.69988 9.1 2.49988 8.5C2.39988 7.9 2.29987 7.3002 2.29987 6.7002C2.29987 6.1002 2.2999 5.4999 2.3999 4.8999C2.4999 4.2999 2.59987 3.7002 2.79987 3.2002C2.99987 2.6002 3.19991 2.1001 3.59991 1.6001C5.99991 4.6001 8.9999 6.9002 12.3999 8.7002C15.7999 10.4002 19.3999 11.4001 23.2999 11.6001C23.2999 11.4001 23.1999 11.3002 23.1999 11.2002C23.0999 10.8002 23.0999 10.2999 23.0999 9.8999C23.0999 9.6999 23.0999 9.5999 23.0999 9.3999C23.0999 8.3999 23.2999 7.5 23.5999 6.5C23.8999 5.5 24.3999 4.5002 25.0999 3.7002C25.3999 3.3002 25.6999 3.0002 25.9999 2.7002C26.6999 2.0002 27.3999 1.5001 28.1999 1.1001C29.0999 0.600098 29.9999 0.300098 30.9999 0.100098C31.2999 9.76548e-05 31.6999 0 32.0999 0C32.4999 0 32.8999 0 33.1999 0C33.6999 0 34.2999 0.100195 34.7999 0.200195C35.5999 0.400195 36.3999 0.6 37.0999 1C37.7999 1.4 38.4999 1.7998 39.0999 2.2998C39.2999 2.4998 39.4999 2.6999 39.6999 2.8999C39.7999 2.9999 39.7999 2.9999 39.8999 2.8999C40.2999 2.7999 40.6999 2.7001 41.0999 2.6001C42.0999 2.3001 43.0999 2 44.0999 1.5C44.6999 1.2 45.1999 0.900098 45.7999 0.600098C45.7999 0.600098 45.8999 0.6 45.8999 0.5C45.5999 1.6 44.9999 2.6 44.2999 3.5C43.5999 4.4 42.7999 5.1002 41.7999 5.7002C41.9999 5.8002 43.1999 5.5002 44.4999 5.2002C45.3999 5.0002 46.2999 4.5998 47.0999 4.2998C47.0999 4.3998 46.9999 4.4 46.9999 4.5C46.4999 5.2 46.0999 5.7999 45.4999 6.3999C45.1999 6.6999 44.8999 7.0999 44.5999 7.3999C43.9999 7.9999 43.2999 8.6001 42.4999 9.1001C42.3999 9.2001 42.2999 9.3 42.2999 9.5C42.2999 10.1 42.2999 10.6998 42.2999 11.2998C42.2999 11.7998 42.2999 12.2998 42.1999 12.7998C42.0999 13.4998 41.9999 14.3 41.8999 15C41.6999 16.1 41.3999 17.2999 41.0999 18.3999C40.7999 19.2999 40.4999 20.1 40.1999 21C39.8999 21.8 39.4999 22.5999 39.0999 23.3999C38.6999 24.1999 38.1999 24.9998 37.6999 25.7998C36.9999 26.8998 36.1999 28 35.2999 29C34.7999 29.6 34.2999 30.1002 33.6999 30.7002C32.5999 31.8002 31.3999 32.7 30.0999 33.5C29.3999 34 28.5999 34.3999 27.7999 34.8999C26.5999 35.5999 25.2999 36.1 23.8999 36.5C22.7999 36.9 21.5999 37.1999 20.3999 37.3999C19.6999 37.4999 18.9999 37.6002 18.2999 37.7002C17.8999 37.7002 17.5999 37.7998 17.1999 37.7998C16.8999 37.7998 16.6999 37.7999 16.3999 37.8999C16.1999 37.8999 15.9999 37.8999 15.7999 37.8999C15.1999 37.8999 14.6999 37.8999 14.0999 37.8999C13.6999 37.8999 13.2999 37.8998 12.8999 37.7998C12.5999 37.7998 12.3999 37.8002 12.0999 37.7002C11.4999 37.6002 10.7999 37.4999 10.1999 37.3999C9.29989 37.1999 8.39988 36.9998 7.49988 36.7998C6.19988 36.3998 4.89989 35.9999 3.69989 35.3999C2.59989 34.8999 1.59988 34.3002 0.499878 33.7002L0.399902 33.6001C0.499902 33.6001 0.59989 33.6001 0.69989 33.6001C0.99989 33.6001 1.29991 33.6002 1.59991 33.7002C1.99991 33.7002 2.29989 33.7002 2.69989 33.7002C3.19989 33.7002 3.59991 33.7002 4.09991 33.7002C5.49991 33.6002 6.99987 33.2999 8.29987 32.8999C9.19987 32.5999 10.0999 32.2999 10.8999 31.8999C12.0999 31.2999 13.1999 30.5998 14.2999 29.7998C14.2999 29.7998 14.3999 29.7001 14.3999 29.6001Z" fill="white"/>
</svg>
