<svg width="38" height="39" viewBox="0 0 38 39" fill="none" xmlns="http://www.w3.org/2000/svg">
<path d="M37.2999 0.100098C37.2999 0.200098 37.2999 0.299805 37.2999 0.299805C37.2999 7.7998 37.2999 15.3002 37.2999 22.7002C37.2999 22.9002 37.2999 23.0002 37.2999 23.2002C37.2999 23.4002 37.2 23.5001 37.1 23.6001C36.7 24.0001 36.2999 24.3998 35.8999 24.7998C33.2999 27.3998 30.6 30.1002 28 32.7002C27.8 32.9002 27.5999 33.0998 27.3999 33.2998C27.2999 33.3998 27.2 33.5 27 33.5C25.5 33.5 24 33.5 22.5 33.5C21.7 33.5 20.8 33.5 20 33.5C19.8 33.5 19.7 33.6002 19.5 33.7002C18 35.2002 16.3999 36.7998 14.8999 38.2998C14.7999 38.3998 14.5999 38.5 14.3999 38.5C12.8999 38.5 11.3999 38.5 9.8999 38.5C9.6999 38.5 9.59998 38.5002 9.59998 38.2002C9.59998 36.7002 9.59998 35.2002 9.59998 33.7002C9.59998 33.6002 9.5999 33.5 9.3999 33.5C8.2999 33.5 7.19998 33.5 6.09998 33.5C4.99998 33.5 3.89993 33.5 2.79993 33.5C2.09993 33.5 1.39995 33.5 0.699951 33.5C0.499951 33.5 0.399902 33.5002 0.399902 33.2002C0.399902 33.1002 0.399902 32.8998 0.399902 32.7998C0.399902 24.1998 0.399902 15.6001 0.399902 7.1001C0.399902 6.9001 0.4 6.8001 0.5 6.6001C1.3 4.5001 2.0999 2.3002 2.8999 0.200195L3 0.100098H3.09998C14.3 0.100098 25.5999 0.100098 36.7999 0.100098C37.1999 0.100098 37.1999 0.100098 37.2999 0.100098ZM14 32.6001C14.1 32.5001 14.1 32.5 14.1 32.5C14.4 32.2 14.7 31.9002 15 31.7002C16.3 30.4002 17.4999 29.1999 18.7999 27.8999C18.8999 27.7999 19.0999 27.7002 19.2999 27.7002C22.1999 27.7002 25.0999 27.7002 27.8999 27.7002C28.0999 27.7002 28.1999 27.6 28.2999 27.5C28.6999 27.1 29.1 26.6998 29.5 26.2998C30.9 24.8998 32.3999 23.4 33.7999 22C33.8999 21.9 34 21.7001 34 21.6001C34 15.7001 34 9.6998 34 3.7998C34 3.4998 34 3.5 33.7 3.5C32.1 3.5 30.4999 3.5 28.8999 3.5C21.4999 3.5 14.1999 3.5 6.79993 3.5C6.49993 3.5 6.5 3.5002 6.5 3.7002C6.5 11.6002 6.5 19.4999 6.5 27.3999C6.5 27.5999 6.49993 27.7002 6.79993 27.7002C9.09993 27.7002 11.4 27.7002 13.7 27.7002H13.7999C13.8999 27.7002 14 27.6998 14 27.7998C14 27.8998 14 27.9 14 28C14 29.5 14 30.8999 14 32.3999C14 32.3999 14 32.5001 14 32.6001Z" fill="white"/>
<path d="M15.6 15.1001C15.6 13.5001 15.6 11.8999 15.6 10.3999C15.6 10.0999 15.5999 10.1001 15.8999 10.1001C16.7999 10.1001 17.8 10.1001 18.7 10.1001C18.9 10.1001 19 10.0999 19 10.3999C19 11.2999 19 12.2001 19 13.1001C19 14.2001 19 15.3 19 16.5C19 17.7 19 18.6999 19 19.8999C19 20.1999 19 20.2002 18.7 20.2002C17.8 20.2002 16.7999 20.2002 15.8999 20.2002C15.5999 20.2002 15.6 20.1999 15.6 19.8999C15.6 18.2999 15.6 16.7001 15.6 15.1001Z" fill="white"/>
<path d="M28.2 15.1001C28.2 16.7001 28.2 18.1998 28.2 19.7998C28.2 20.0998 28.1999 20.1001 27.8999 20.1001C26.9999 20.1001 26.1 20.1001 25.2 20.1001C24.8 20.1001 24.7999 20.1002 24.7999 19.7002C24.7999 17.3002 24.7999 15.0001 24.7999 12.6001C24.7999 11.8001 24.7999 11.0998 24.7999 10.2998C24.7999 9.9998 24.8 10 25.1 10C26 10 26.9999 10 27.8999 10C28.0999 10 28.2 9.9998 28.2 10.2998C28.2 11.8998 28.2 13.5001 28.2 15.1001Z" fill="white"/>
</svg>
