<svg width="512" height="512" viewBox="0 0 512 512" fill="none" xmlns="http://www.w3.org/2000/svg">
<rect width="512" height="512" fill="#262626"/>
<path fill-rule="evenodd" clip-rule="evenodd" d="M6 441.5L254.5 10L506 441.5H6ZM44 418L254.5 54L464 418H44Z" fill="#E72E51" stroke="#E72E51"/>
<path d="M261 93.001C142 93.0011 34 193.5 53.9999 329.001L72.4999 298.001C80.4997 144 219 106 273.5 116L261 93.001Z" fill="#E72E51"/>
<path d="M425.5 404.501C505 278.5 425.5 142.5 327.5 106.501L345 139.001C434 186.501 467.001 316.001 401 404.501H425.5Z" fill="#E72E51"/>
<path d="M347.001 455.5C283.5 496 146 495.5 87.5005 370L74.5005 394C171.5 550 333 505.5 384.501 455.5H347.001Z" fill="#E72E51"/>
<path d="M261 93.001C142 93.0011 34 193.5 53.9999 329.001L72.4999 298.001C80.4997 144 219 106 273.5 116L261 93.001Z" stroke="#E72E51"/>
<path d="M425.5 404.501C505 278.5 425.5 142.5 327.5 106.501L345 139.001C434 186.501 467.001 316.001 401 404.501H425.5Z" stroke="#E72E51"/>
<path d="M347.001 455.5C283.5 496 146 495.5 87.5005 370L74.5005 394C171.5 550 333 505.5 384.501 455.5H347.001Z" stroke="#E72E51"/>
</svg>
