<svg width="256" height="256" viewBox="0 0 256 256" fill="none" xmlns="http://www.w3.org/2000/svg">
<rect width="256" height="256" fill="#262626"/>
<path fill-rule="evenodd" clip-rule="evenodd" d="M3 220.75L127.25 5L253 220.75H3ZM22 209L127.25 27L232 209H22Z" fill="#E72E51" stroke="#E72E51"/>
<path d="M130.5 46.5005C70.9999 46.5006 16.9997 96.75 26.9997 164.5L36.2497 149C40.2496 72 109.5 53 136.75 58L130.5 46.5005Z" fill="#E72E51"/>
<path d="M212.75 202.25C252.5 139.25 212.75 71.25 163.75 53.2504L172.5 69.5004C217 93.2505 233.5 158.001 200.5 202.25H212.75Z" fill="#E72E51"/>
<path d="M173.5 227.75C141.75 248 72.9997 247.75 43.75 185L37.25 197C85.7498 275 166.5 252.75 192.25 227.75H173.5Z" fill="#E72E51"/>
<path d="M130.5 46.5005C70.9999 46.5006 16.9997 96.75 26.9997 164.5L36.2497 149C40.2496 72 109.5 53 136.75 58L130.5 46.5005Z" stroke="#E72E51"/>
<path d="M212.75 202.25C252.5 139.25 212.75 71.25 163.75 53.2504L172.5 69.5004C217 93.2505 233.5 158.001 200.5 202.25H212.75Z" stroke="#E72E51"/>
<path d="M173.5 227.75C141.75 248 72.9997 247.75 43.75 185L37.25 197C85.7498 275 166.5 252.75 192.25 227.75H173.5Z" stroke="#E72E51"/>
</svg>
