<svg width="152" height="150" viewBox="0 0 152 150" fill="none" xmlns="http://www.w3.org/2000/svg">
<path fill-rule="evenodd" clip-rule="evenodd" d="M1 130.45L75.55 1L151 130.45H1ZM12.4 123.4L75.55 14.2L138.4 123.4H12.4Z" fill="#E8E8E8" stroke="#E8E8E8"/>
<path d="M77.5 25.9004C41.8001 25.9004 9.40005 56.0501 15.4 96.7004L20.95 87.4004C23.35 41.2001 64.9 29.8001 81.25 32.8001L77.5 25.9004Z" fill="#E8E8E8"/>
<path d="M126.85 119.35C150.7 81.5501 126.85 40.7501 97.4501 29.9503L102.7 39.7003C129.4 53.9504 139.3 92.8004 119.5 119.35H126.85Z" fill="#E8E8E8"/>
<path d="M103.3 134.65C84.2501 146.8 43 146.65 25.4502 109L21.5502 116.2C50.6501 163 99.1001 149.65 114.55 134.65H103.3Z" fill="#E8E8E8"/>
<path d="M15.4 96.7004L14.9054 96.7734L15.1103 98.1616L15.8294 96.9566L15.4 96.7004ZM77.5 25.9004L77.9393 25.6616L77.7973 25.4004L77.5 25.4004L77.5 25.9004ZM81.25 32.8001L81.1597 33.2919L82.1889 33.4807L81.6893 32.5613L81.25 32.8001ZM20.95 87.4004L21.3794 87.6566L21.4429 87.5501L21.4493 87.4263L20.95 87.4004ZM97.4501 29.9503L97.6225 29.481L96.3847 29.0263L97.0099 30.1874L97.4501 29.9503ZM126.85 119.35V119.85H127.126L127.273 119.617L126.85 119.35ZM119.5 119.35L119.099 119.051L118.504 119.85H119.5V119.35ZM102.7 39.7003L102.26 39.9374L102.331 40.0703L102.465 40.1414L102.7 39.7003ZM25.4502 109L25.9034 108.789L25.4837 107.888L25.0105 108.762L25.4502 109ZM103.3 134.65V134.15H103.154L103.031 134.229L103.3 134.65ZM114.55 134.65L114.899 135.009L115.783 134.15H114.55V134.65ZM21.5502 116.2L21.1105 115.962L20.9722 116.217L21.1256 116.464L21.5502 116.2ZM15.8947 96.6274C9.94515 56.319 42.0635 26.4004 77.5 26.4004L77.5 25.4004C41.5367 25.4004 8.85494 55.7812 14.9054 96.7734L15.8947 96.6274ZM77.0607 26.1392L80.8106 33.0389L81.6893 32.5613L77.9393 25.6616L77.0607 26.1392ZM81.3402 32.3083C73.0263 30.7828 58.4231 32.9189 45.5968 41.2305C32.7401 49.5618 21.6595 64.1037 20.4507 87.3744L21.4493 87.4263C22.6405 64.4968 33.5348 50.2385 46.1406 42.0697C58.7768 33.8813 73.1236 31.8174 81.1597 33.2919L81.3402 32.3083ZM20.5207 87.1442L14.9707 96.4442L15.8294 96.9566L21.3794 87.6566L20.5207 87.1442ZM97.2777 30.4197C111.837 35.768 125.049 48.5607 131.656 64.7144C138.256 80.8517 138.259 100.33 126.427 119.083L127.273 119.617C139.291 100.57 139.294 80.7487 132.582 64.3359C125.876 47.9396 112.463 34.9325 97.6225 29.481L97.2777 30.4197ZM126.85 118.85H119.5V119.85H126.85V118.85ZM119.901 119.649C139.885 92.8526 129.904 53.6525 102.936 39.2592L102.465 40.1414C128.896 54.2482 138.715 92.7482 119.099 119.051L119.901 119.649ZM103.14 39.4633L97.8903 29.7133L97.0099 30.1874L102.26 39.9374L103.14 39.4633ZM24.997 109.211C33.8431 128.189 48.6788 137.733 63.7067 140.989C78.7113 144.239 93.9231 141.224 103.569 135.072L103.031 134.229C93.6273 140.226 78.6889 143.211 63.9185 140.011C49.1714 136.817 34.6071 127.461 25.9034 108.789L24.997 109.211ZM103.3 135.15H114.55V134.15H103.3V135.15ZM114.202 134.291C106.583 141.689 90.7436 148.733 73.1869 148.1C55.6688 147.469 36.4352 139.192 21.9748 115.936L21.1256 116.464C35.765 140.008 55.3064 148.456 73.1509 149.1C90.9567 149.742 107.068 142.612 114.899 135.009L114.202 134.291ZM21.9898 116.438L25.8898 109.238L25.0105 108.762L21.1105 115.962L21.9898 116.438Z" fill="#E8E8E8"/>
</svg>
