<svg width="30" height="10" viewBox="0 0 30 10" fill="none" xmlns="http://www.w3.org/2000/svg">
<path d="M8.19995 5.20033L0.599976 9.60023C0.499976 9.70023 0.300049 9.60004 0.300049 9.40004V0.600231C0.300049 0.400231 0.499976 0.300036 0.599976 0.400036L8.19995 4.79994C8.29995 4.89994 8.29995 5.10033 8.19995 5.20033Z" fill="#E72E51"/>
<path d="M18.7 5.20033L11.1 9.60023C11 9.70023 10.8 9.60004 10.8 9.40004V0.600231C10.8 0.400231 11 0.300036 11.1 0.400036L18.7 4.79994C18.9 4.89994 18.9 5.10033 18.7 5.20033Z" fill="#E72E51"/>
<path d="M29.3 5.20033L21.7 9.60023C21.6 9.70023 21.4 9.60004 21.4 9.40004V0.600231C21.4 0.400231 21.6 0.300036 21.7 0.400036L29.3 4.79994C29.5 4.89994 29.5 5.10033 29.3 5.20033Z" fill="#E72E51"/>
</svg>
