<svg width="30" height="28" viewBox="0 0 30 28" fill="none" xmlns="http://www.w3.org/2000/svg">
<path d="M8.30002 5.20033L0.700043 9.60023C0.600043 9.70023 0.400024 9.60004 0.400024 9.40004V0.600231C0.400024 0.400231 0.600043 0.300036 0.700043 0.400036L8.30002 4.79994C8.40002 4.89994 8.40002 5.10033 8.30002 5.20033Z" fill="#E72E51"/>
<path d="M18.8 5.20033L11.2 9.60023C11.1 9.70023 10.9 9.60004 10.9 9.40004V0.600231C10.9 0.400231 11.1 0.300036 11.2 0.400036L18.8 4.79994C19 4.89994 19 5.10033 18.8 5.20033Z" fill="#E72E51"/>
<path d="M29.4 5.20033L21.8 9.60023C21.7 9.70023 21.5 9.60004 21.5 9.40004V0.600231C21.5 0.400231 21.7 0.300036 21.8 0.400036L29.4 4.79994C29.5 4.89994 29.5 5.10033 29.4 5.20033Z" fill="#E72E51"/>
<path d="M8.30002 22.6002L0.700043 27.0001C0.600043 27.1001 0.400024 26.9999 0.400024 26.7999V18.0001C0.400024 17.8001 0.600043 17.6999 0.700043 17.7999L8.30002 22.2003C8.40002 22.3003 8.40002 22.5002 8.30002 22.6002Z" fill="#E72E51"/>
<path d="M18.8 22.6002L11.2 27.0001C11.1 27.1001 10.9 26.9999 10.9 26.7999V18.0001C10.9 17.8001 11.1 17.6999 11.2 17.7999L18.8 22.2003C19 22.3003 19 22.5002 18.8 22.6002Z" fill="#E72E51"/>
<path d="M29.4 22.6002L21.8 27.0001C21.7 27.1001 21.5 26.9999 21.5 26.7999V18.0001C21.5 17.8001 21.7 17.6999 21.8 17.7999L29.4 22.2003C29.5 22.3003 29.5 22.5002 29.4 22.6002Z" fill="#E72E51"/>
</svg>
